<svg width="433" height="359" viewBox="0 0 433 359" fill="none" xmlns="http://www.w3.org/2000/svg">
<path d="M385.5 293.262C499 195.262 385.5 6.00002 239.5 83C98.0004 174.5 212.5 365 354.5 312.762L341.5 287.262C239.5 329 139 182 255 105.762C343 52.7619 457 166.762 376 265.262L385.5 293.262Z" fill="black" stroke="black"/>
<path d="M1 358L207 1L253.5 81.5L230 95L207 57L33 358H1Z" fill="black"/>
<path d="M253 137L276 122L413 358H381L253 137Z" fill="black"/>
<path d="M1 358L207 1L253.5 81.5L230 95L207 57L33 358H1Z" stroke="black"/>
<path d="M253 137L276 122L413 358H381L253 137Z" stroke="black"/>
</svg>
