<svg width="2734" height="364" viewBox="0 0 2734 364" fill="none" xmlns="http://www.w3.org/2000/svg">
<path d="M2636.35 197.063L2634.84 197.047V198.562V207.094V208.581L2636.32 208.594L2729.37 209.424L2731.66 209.444L2730.77 207.339L2659.67 39.5427L2658.29 36.2832L2656.9 39.5427L2585.8 207.339L2584.92 209.424H2587.19H2596.29H2597.28L2597.67 208.511L2658.28 65.864L2714.31 197.868L2636.35 197.063Z" fill="#E6B902" stroke="#E6B902" stroke-width="3"/>
<path d="M2553.81 207.289L2515.78 125.9C2523.53 122.253 2530.26 117.217 2535.94 110.8L2535.95 110.792L2535.96 110.785C2542.06 103.696 2545.14 95.5784 2545.14 86.4849C2545.14 72.505 2539.09 61.4308 2527.13 53.3906C2515.39 45.3724 2498.17 41.4717 2475.67 41.4717H2444.38H2442.88V42.9717V207.924V209.424H2444.38H2452.91H2454.41V207.924V53.0037H2475.67C2492.38 53.0037 2506.26 55.8218 2517.37 61.3773C2522.87 64.1267 2526.91 67.5883 2529.58 71.7272C2532.25 75.8607 2533.61 80.7599 2533.61 86.4849C2533.61 89.5849 2533.24 92.4833 2532.52 95.1862C2531.82 97.6545 2530.67 99.9505 2529.07 102.08L2529.06 102.089L2529.06 102.098C2527.56 104.158 2526.16 106.03 2524.85 107.712C2523.65 109.073 2521.8 110.586 2519.22 112.241C2516.63 113.91 2514.75 115.131 2513.59 115.9L2507.44 118.978C2504.62 120.293 2502.98 121.061 2502.58 121.262L2501.28 121.915L2501.89 123.238L2541.71 208.558L2542.11 209.424H2543.07H2552.45H2554.81L2553.81 207.289Z" fill="#E6B902" stroke="#E6B902" stroke-width="3"/>
<path d="M2399.67 41.4717H2398.17V42.9717V207.924V209.424H2399.67H2408.2H2409.7V207.924V42.9717V41.4717H2408.2H2399.67Z" fill="#E6B902" stroke="#E6B902" stroke-width="3"/>
<path d="M2355.38 192.079L2356.25 190.98L2355.21 190.035L2348.96 184.347L2347.73 183.235L2346.75 184.56C2338.81 195.194 2324.42 200.736 2303.01 200.736C2293.63 200.736 2285.83 199.798 2279.57 197.959C2273.38 195.953 2267.61 192.395 2262.27 187.24C2257.2 181.986 2253.32 174.388 2250.71 164.322C2248.1 154.057 2246.78 141.11 2246.78 125.448C2246.78 109.783 2248.1 96.9331 2250.71 86.8616L2250.71 86.8552C2253.33 76.5816 2257.21 68.9934 2262.27 63.9406C2267.62 58.5915 2273.38 55.0421 2279.55 53.2274L2279.57 53.2217L2279.58 53.2155C2285.84 51.1932 2293.63 50.1599 2303.01 50.1599C2323.66 50.1599 2337.78 55.3132 2345.87 65.2176L2275.03 124.296L2271.85 126.948H2275.99H2289.36H2289.91L2290.32 126.598L2360 68.2963L2360.95 67.506L2360.36 66.4257C2350.14 47.7711 2330.84 38.6279 2303.01 38.6279C2279.04 38.6279 2261.54 45.4432 2250.91 59.4123C2240.37 73.2701 2235.25 95.3876 2235.25 125.448C2235.25 155.508 2240.37 177.626 2250.91 191.484C2261.54 205.453 2279.04 212.268 2303.01 212.268C2326.97 212.268 2344.56 205.65 2355.38 192.079Z" fill="#E6B902" stroke="#E6B902" stroke-width="3"/>
<path d="M2213.06 43.5569L2213.95 41.4717H2211.68H2202.58H2201.59L2201.2 42.385L2140.58 185.034L2079.96 42.385L2079.58 41.4717H2078.58H2069.48H2067.22L2068.1 43.5569L2139.2 211.353L2140.58 214.612L2141.96 211.353L2213.06 43.5569Z" fill="#E6B902" stroke="#E6B902" stroke-width="3"/>
<path d="M2028.89 41.4717H2027.39V42.9717V207.924V209.424H2028.89H2037.42H2038.92V207.924V42.9717V41.4717H2037.42H2028.89Z" fill="#E6B902" stroke="#E6B902" stroke-width="3"/>
<path d="M1997.62 199.392V197.892H1996.12H1911.17V42.9717V41.4717H1909.67H1901.13H1899.63V42.9717V207.924V209.424H1901.13H1996.12H1997.62V207.924V199.392Z" fill="#E6B902" stroke="#E6B902" stroke-width="3"/>
<path d="M1837.75 190.325L1837.76 190.318C1848.46 175.527 1853.68 152.772 1853.68 122.32V94.4485C1853.68 64.0019 1848.46 41.336 1837.75 26.7314C1826.96 11.818 1809.55 4.5 1785.92 4.5C1762.28 4.5 1744.88 11.818 1734.08 26.7312C1723.37 41.3358 1718.15 64.0018 1718.15 94.4485V122.32C1718.15 152.772 1723.38 175.527 1734.08 190.318L1734.09 190.325C1744.88 205.049 1762.29 212.268 1785.92 212.268C1809.55 212.268 1826.95 205.049 1837.75 190.325ZM1809.29 19.6353L1809.3 19.642L1809.32 19.6481C1815.7 21.8351 1821.47 25.6694 1826.63 31.1975C1831.7 36.6345 1835.59 44.6157 1838.21 55.2746L1838.21 55.2806C1840.83 65.7399 1842.15 78.7857 1842.15 94.4485V122.32C1842.15 137.98 1840.83 151.122 1838.21 161.774C1835.6 172.239 1831.71 180.129 1826.63 185.571C1821.47 191.1 1815.69 195.034 1809.3 197.41C1802.87 199.614 1795.08 200.736 1785.92 200.736C1776.75 200.736 1768.97 199.614 1762.53 197.41C1756.14 195.034 1750.37 191.1 1745.21 185.571C1740.13 180.129 1736.24 172.239 1733.62 161.775C1731.01 151.123 1729.68 137.98 1729.68 122.32V94.4485C1729.68 78.7857 1731.01 65.7399 1733.62 55.2806L1733.62 55.2746C1736.24 44.6157 1740.13 36.6345 1745.21 31.1975C1750.37 25.6694 1756.14 21.8351 1762.51 19.6481L1762.53 19.642L1762.55 19.6353C1768.98 17.2486 1776.75 16.032 1785.92 16.032C1795.08 16.032 1802.86 17.2486 1809.29 19.6353Z" fill="#E6B902" stroke="#E6B902" stroke-width="3"/>
<path d="M1596.61 192.079L1597.48 190.98L1596.44 190.035L1590.19 184.347L1588.96 183.235L1587.98 184.56C1580.04 195.194 1565.65 200.736 1544.24 200.736C1534.86 200.736 1527.06 199.798 1520.8 197.959C1514.61 195.953 1508.84 192.395 1503.5 187.24C1498.43 181.986 1494.55 174.388 1491.94 164.322C1489.33 154.057 1488.01 141.11 1488.01 125.448C1488.01 109.783 1489.33 96.9331 1491.94 86.8616L1491.94 86.8552C1494.56 76.5816 1498.44 68.9934 1503.5 63.9406C1508.85 58.5915 1514.61 55.0421 1520.78 53.2274L1520.8 53.2217L1520.81 53.2155C1527.07 51.1932 1534.86 50.1599 1544.24 50.1599C1564.89 50.1599 1579.01 55.3132 1587.1 65.2176L1516.26 124.296L1513.08 126.948H1517.22H1530.59H1531.14L1531.55 126.598L1601.23 68.2963L1602.18 67.506L1601.59 66.4257C1591.37 47.7711 1572.07 38.6279 1544.24 38.6279C1520.27 38.6279 1502.77 45.4432 1492.14 59.4123C1481.6 73.2701 1476.48 95.3876 1476.48 125.448C1476.48 155.508 1481.6 177.626 1492.14 191.484C1502.77 205.453 1520.27 212.268 1544.24 212.268C1568.2 212.268 1585.79 205.65 1596.61 192.079Z" fill="#E6B902" stroke="#E6B902" stroke-width="3"/>
<path d="M1326.39 207.924V209.424H1327.89H1349.5C1377.83 209.424 1400.59 201.953 1417.62 186.863C1434.67 171.748 1443.15 151.217 1443.15 125.448C1443.15 99.6785 1434.67 79.1471 1417.62 64.0324C1400.59 48.9423 1377.83 41.4717 1349.5 41.4717H1327.89H1326.39V42.9717V207.924ZM1409.39 178.632L1409.38 178.638C1394.74 191.42 1374.84 197.892 1349.5 197.892H1337.92V53.0037H1349.5C1374.84 53.0037 1394.74 59.4753 1409.38 72.2571L1409.39 72.2632C1424.17 85.0151 1431.62 102.678 1431.62 125.448C1431.62 148.218 1424.17 165.88 1409.39 178.632Z" fill="#E6B902" stroke="#E6B902" stroke-width="3"/>
<path d="M1202.49 197.892H1200.99V199.392V207.924V209.424H1202.49H1295.44H1297.71L1296.82 207.339L1225.72 39.5427L1224.34 36.2832L1222.96 39.5427L1151.86 207.339L1150.98 209.424H1153.24H1162.34H1163.34L1163.72 208.511L1224.34 65.8641L1280.38 197.892H1202.49Z" fill="#E6B902" stroke="#E6B902" stroke-width="3"/>
<path d="M1078.87 125.9C1086.63 122.253 1093.36 117.217 1099.04 110.8L1099.05 110.792L1099.05 110.785C1105.16 103.696 1108.23 95.5784 1108.23 86.4849C1108.23 72.5051 1102.19 61.4308 1090.23 53.3906C1078.49 45.3724 1061.26 41.4717 1038.76 41.4717H1007.48H1005.98V42.9717V207.924V209.424H1007.48H1016.01H1017.51V207.924V53.0037H1038.76C1055.48 53.0037 1069.35 55.8218 1080.47 61.3773C1085.96 64.1267 1090 67.5883 1092.67 71.7272C1095.34 75.8607 1096.7 80.7599 1096.7 86.4849C1096.7 89.5849 1096.34 92.4833 1095.62 95.1862C1094.91 97.6544 1093.76 99.9505 1092.17 102.08L1092.16 102.089L1092.15 102.098C1090.65 104.158 1089.25 106.03 1087.94 107.712C1086.74 109.073 1084.89 110.586 1082.32 112.241C1079.72 113.91 1077.84 115.131 1076.69 115.9L1070.53 118.978C1067.71 120.293 1066.08 121.061 1065.68 121.262L1064.37 121.915L1064.99 123.238L1104.8 208.558L1105.21 209.424H1106.16H1115.55H1117.91L1116.91 207.289L1078.87 125.9Z" fill="#E6B902" stroke="#E6B902" stroke-width="3"/>
<path d="M854.704 207.924V209.424H856.204H877.818C906.147 209.424 928.907 201.953 945.931 186.863C962.984 171.748 971.464 151.217 971.464 125.448C971.464 99.6785 962.984 79.1471 945.931 64.0324C928.907 48.9423 906.147 41.4717 877.818 41.4717H856.204H854.704V42.9717V207.924ZM937.7 178.632L937.693 178.638C923.059 191.42 903.158 197.892 877.818 197.892H866.236V53.0037H877.818C903.158 53.0037 923.059 59.4753 937.693 72.2571L937.7 72.2632C952.485 85.0151 959.932 102.678 959.932 125.448C959.932 148.218 952.485 165.88 937.7 178.632Z" fill="#E6B902" stroke="#E6B902" stroke-width="3"/>
<path d="M705.652 207.923L705.652 209.423H707.152H715.684H717.184V207.923V68.8735L807.137 208.735L807.58 209.423H808.398H816.93H818.43V207.923V43.0308V41.5308H816.93H808.398H806.898V43.0308V174.434L716.924 42.187L716.477 41.5308H715.684H707.152H705.652L705.652 43.0308L705.652 207.923Z" fill="#E6B902" stroke="#E6B902" stroke-width="3"/>
<path d="M580.363 198.295H578.863V199.795V208.327V209.827H580.363H675.044H677.186L676.454 207.815L603.932 8.45011L602.522 4.57501L601.112 8.45011L528.59 207.815L527.858 209.827H530H539.101H540.151L540.51 208.84L602.522 38.3786L660.673 198.295H580.363Z" fill="#E6B902" stroke="#E6B902" stroke-width="3"/>
<path d="M2556.35 360.058L2590.62 280.74H2591.08L2625.35 360.058H2619.07L2589.25 289.089L2593.14 287.055L2561.95 360.058H2556.35ZM2572.92 329.979H2608.9L2610.5 334.903H2571.54L2572.92 329.979Z" fill="white"/>
<path d="M2498.22 284.058C2501.27 284.058 2504.28 284.486 2507.25 285.342C2510.3 286.127 2513.04 287.412 2515.47 289.196C2517.99 290.908 2520.01 293.12 2521.53 295.832C2523.05 298.544 2523.81 301.791 2523.81 305.573C2523.81 308.427 2523.36 311.211 2522.44 313.922C2521.53 316.563 2520.04 318.953 2517.99 321.094C2515.93 323.235 2513.27 324.948 2509.99 326.232C2506.72 327.517 2502.68 328.159 2497.88 328.159H2485.31V360.057H2479.72V284.058H2498.22ZM2497.54 323.128C2501.57 323.128 2504.93 322.593 2507.59 321.522C2510.26 320.452 2512.35 319.06 2513.87 317.348C2515.4 315.635 2516.46 313.78 2517.07 311.781C2517.76 309.712 2518.1 307.714 2518.1 305.787C2518.1 303.504 2517.64 301.363 2516.73 299.365C2515.89 297.366 2514.64 295.618 2512.96 294.12C2511.29 292.55 2509.27 291.336 2506.91 290.48C2504.54 289.552 2501.92 289.089 2499.02 289.089H2485.31V323.128H2497.54ZM2509.19 325.483L2531.7 360.057H2525.18L2502.56 325.59L2509.19 325.483Z" fill="white"/>
<path d="M2392.66 334.367C2392.66 338.792 2393.61 342.61 2395.52 345.821C2397.5 349.032 2400.16 351.53 2403.51 353.314C2406.87 355.026 2410.67 355.883 2414.94 355.883C2419.28 355.883 2423.13 355.026 2426.48 353.314C2429.9 351.53 2432.57 349.032 2434.47 345.821C2436.45 342.61 2437.44 338.792 2437.44 334.367V284.058H2442.93V334.688C2442.93 340.183 2441.67 344.893 2439.16 348.818C2436.72 352.743 2433.37 355.74 2429.1 357.809C2424.92 359.879 2420.19 360.914 2414.94 360.914C2409.68 360.914 2404.92 359.879 2400.66 357.809C2396.47 355.74 2393.16 352.743 2390.72 348.818C2388.28 344.893 2387.06 340.183 2387.06 334.688V284.058H2392.66V334.367Z" fill="white"/>
<path d="M2303.65 284.058H2356.77V289.089H2332.9V360.057H2327.3V289.089H2303.65V284.058Z" fill="white"/>
<path d="M2225.78 284.058H2275.81V289.089H2231.38V319.274H2271.36V324.305H2231.38V355.026H2277.41V360.057H2225.78V284.058Z" fill="white"/>
<path d="M2141.91 284.058H2195.03V289.089H2171.15V360.057H2165.56V289.089H2141.91V284.058Z" fill="white"/>
<path d="M2105.53 284.058H2111.13V360.057H2105.53V284.058Z" fill="white"/>
<path d="M2018.48 334.367C2018.48 338.792 2019.43 342.61 2021.33 345.821C2023.31 349.032 2025.98 351.53 2029.33 353.314C2032.68 355.026 2036.49 355.883 2040.76 355.883C2045.1 355.883 2048.94 355.026 2052.29 353.314C2055.72 351.53 2058.39 349.032 2060.29 345.821C2062.27 342.61 2063.26 338.792 2063.26 334.367V284.058H2068.74V334.688C2068.74 340.183 2067.49 344.893 2064.97 348.818C2062.54 352.743 2059.19 355.74 2054.92 357.809C2050.73 359.879 2046.01 360.914 2040.76 360.914C2035.5 360.914 2030.74 359.879 2026.48 357.809C2022.29 355.74 2018.97 352.743 2016.54 348.818C2014.1 344.893 2012.88 340.183 2012.88 334.688V284.058H2018.48V334.367Z" fill="white"/>
<path d="M1950.64 355.027H1981.26V360.058H1942.76L1950.64 355.027ZM1896.03 322.165C1896.03 316.813 1897.1 311.818 1899.23 307.179C1901.36 302.469 1904.33 298.33 1908.14 294.762C1911.95 291.123 1916.33 288.304 1921.28 286.306C1926.31 284.236 1931.68 283.202 1937.39 283.202C1943.1 283.202 1948.47 284.236 1953.5 286.306C1958.52 288.304 1962.94 291.123 1966.75 294.762C1970.56 298.33 1973.53 302.469 1975.66 307.179C1977.87 311.818 1978.97 316.813 1978.97 322.165C1978.97 327.517 1977.87 332.548 1975.66 337.258C1973.53 341.896 1970.56 346 1966.75 349.568C1962.94 353.136 1958.52 355.919 1953.5 357.917C1948.47 359.915 1943.1 360.914 1937.39 360.914C1931.68 360.914 1926.31 359.951 1921.28 358.024C1916.33 356.097 1911.95 353.385 1908.14 349.889C1904.33 346.392 1901.36 342.289 1899.23 337.579C1897.1 332.869 1896.03 327.731 1896.03 322.165ZM1901.74 322.272C1901.74 326.91 1902.66 331.263 1904.49 335.331C1906.31 339.399 1908.87 342.967 1912.14 346.035C1915.42 349.104 1919.19 351.53 1923.45 353.314C1927.79 355.027 1932.4 355.883 1937.27 355.883C1942.3 355.883 1946.98 355.027 1951.33 353.314C1955.67 351.53 1959.47 349.104 1962.75 346.035C1966.02 342.967 1968.58 339.399 1970.4 335.331C1972.31 331.263 1973.26 326.875 1973.26 322.165C1973.26 317.526 1972.31 313.173 1970.4 309.106C1968.58 305.038 1966.02 301.47 1962.75 298.402C1959.47 295.262 1955.67 292.8 1951.33 291.016C1946.98 289.232 1942.34 288.34 1937.39 288.34C1932.36 288.34 1927.68 289.267 1923.34 291.123C1919 292.907 1915.19 295.369 1911.91 298.509C1908.71 301.649 1906.2 305.288 1904.37 309.427C1902.62 313.495 1901.74 317.776 1901.74 322.272Z" fill="white"/>
<path d="M1836.74 284.058C1839.79 284.058 1842.8 284.486 1845.77 285.342C1848.81 286.127 1851.56 287.412 1853.99 289.196C1856.51 290.908 1858.53 293.12 1860.05 295.832C1861.57 298.544 1862.33 301.791 1862.33 305.573C1862.33 308.427 1861.88 311.211 1860.96 313.922C1860.05 316.563 1858.56 318.953 1856.51 321.094C1854.45 323.235 1851.78 324.948 1848.51 326.232C1845.24 327.517 1841.2 328.159 1836.4 328.159H1823.83V360.057H1818.24V284.058H1836.74ZM1836.06 323.128C1840.09 323.128 1843.45 322.593 1846.11 321.522C1848.78 320.452 1850.87 319.06 1852.39 317.348C1853.92 315.635 1854.98 313.78 1855.59 311.781C1856.28 309.712 1856.62 307.714 1856.62 305.787C1856.62 303.504 1856.16 301.363 1855.25 299.365C1854.41 297.366 1853.16 295.618 1851.48 294.12C1849.8 292.55 1847.79 291.336 1845.43 290.48C1843.06 289.552 1840.44 289.089 1837.54 289.089H1823.83V323.128H1836.06ZM1847.71 325.483L1870.22 360.057H1863.7L1841.08 325.59L1847.71 325.483Z" fill="white"/>
<path d="M1719.07 360.058L1753.34 280.74H1753.8L1788.07 360.058H1781.79L1751.97 289.089L1755.86 287.055L1724.67 360.058H1719.07ZM1735.64 329.979H1771.62L1773.22 334.903H1734.26L1735.64 329.979Z" fill="white"/>
<path d="M1420.31 360.058L1454.58 280.74H1455.03L1489.31 360.058H1483.02L1453.21 289.089L1457.09 287.055L1425.9 360.058H1420.31ZM1436.87 329.979H1472.86L1474.46 334.903H1435.5L1436.87 329.979Z" fill="white"/>
<path d="M1384.5 284.058H1390.1V360.057H1384.5V284.058Z" fill="white"/>
<path d="M1319.29 284.058C1322.34 284.058 1325.35 284.486 1328.32 285.342C1331.37 286.127 1334.11 287.412 1336.54 289.196C1339.06 290.908 1341.08 293.12 1342.6 295.832C1344.12 298.544 1344.88 301.791 1344.88 305.573C1344.88 308.427 1344.43 311.211 1343.51 313.922C1342.6 316.563 1341.11 318.953 1339.06 321.094C1337 323.235 1334.34 324.948 1331.06 326.232C1327.79 327.517 1323.75 328.159 1318.95 328.159H1306.38V360.057H1300.79V284.058H1319.29ZM1318.61 323.128C1322.65 323.128 1326 322.593 1328.66 321.522C1331.33 320.452 1333.42 319.06 1334.95 317.348C1336.47 315.635 1337.53 313.78 1338.14 311.781C1338.83 309.712 1339.17 307.714 1339.17 305.787C1339.17 303.504 1338.71 301.363 1337.8 299.365C1336.96 297.366 1335.71 295.618 1334.03 294.12C1332.36 292.55 1330.34 291.336 1327.98 290.48C1325.62 289.552 1322.99 289.089 1320.09 289.089H1306.38V323.128H1318.61ZM1330.26 325.483L1352.77 360.057H1346.25L1323.64 325.59L1330.26 325.483Z" fill="white"/>
<path d="M1201.62 360.058L1235.89 280.74H1236.35L1270.62 360.058H1264.34L1234.52 289.089L1238.41 287.055L1207.22 360.058H1201.62ZM1218.18 329.979H1254.17L1255.77 334.903H1216.81L1218.18 329.979Z" fill="white"/>
<path d="M1171.47 284.058V360.057H1165.87V324.305H1116.97V360.057H1111.38V284.058H1116.97V319.381H1165.87V284.058H1171.47Z" fill="white"/>
<path d="M1073.87 361.878L1009.9 294.334L1011.38 293.264L1011.5 360.058H1006.02V282.453H1006.36L1070.33 350.531L1068.85 350.959L1068.73 284.058H1074.1V361.878H1073.87Z" fill="white"/>
<path d="M921.629 284.058H971.666V289.089H927.227V319.274H967.211V324.305H927.227V355.026H973.266V360.057H921.629V284.058Z" fill="white"/>
<path d="M886.762 354.706C885.391 355.562 883.716 356.383 881.735 357.168C879.831 357.881 877.775 358.523 875.566 359.094C873.358 359.665 871.073 360.093 868.712 360.379C866.427 360.736 864.257 360.914 862.2 360.914C855.803 360.914 850.015 359.951 844.836 358.024C839.733 356.026 835.354 353.314 831.698 349.889C828.042 346.392 825.224 342.36 823.244 337.793C821.34 333.155 820.388 328.159 820.388 322.807C820.388 317.027 821.454 311.71 823.587 306.858C825.796 302.005 828.804 297.831 832.612 294.334C836.42 290.766 840.837 288.019 845.864 286.092C850.89 284.165 856.222 283.202 861.857 283.202C866.122 283.202 870.121 283.701 873.853 284.7C877.661 285.699 881.088 287.055 884.134 288.768L882.078 293.478C880.326 292.479 878.346 291.622 876.138 290.909C873.929 290.124 871.644 289.517 869.283 289.089C866.998 288.661 864.714 288.447 862.429 288.447C857.25 288.447 852.452 289.303 848.034 291.016C843.617 292.728 839.771 295.119 836.496 298.188C833.221 301.256 830.67 304.86 828.842 308.999C827.014 313.138 826.1 317.633 826.1 322.486C826.1 327.196 826.938 331.585 828.613 335.652C830.365 339.648 832.802 343.181 835.925 346.249C839.124 349.247 842.932 351.601 847.349 353.314C851.766 354.955 856.679 355.776 862.086 355.776C865.285 355.776 868.636 355.419 872.139 354.706C875.643 353.992 878.651 352.957 881.164 351.601V330.514H862.886V325.483H886.762V354.706Z" fill="white"/>
<path d="M788.028 361.878L724.053 294.334L725.538 293.264L725.652 360.058H720.169V282.453H720.512L784.486 350.531L783.001 350.959L782.887 284.058H788.256V361.878H788.028Z" fill="white"/>
<path d="M635.782 284.058H685.82V289.089H641.38V319.274H681.364V324.305H641.38V355.026H687.419V360.057H635.782V284.058Z" fill="white"/>
<path d="M1637.42 362.165C1637.19 362.165 1636.68 362.165 1635.9 362.165C1635.2 362.165 1634.46 362.165 1633.68 362.165C1632.9 362.165 1632.2 362.165 1631.57 362.165C1631.03 362.165 1630.75 362.165 1630.75 362.165L1587.57 311.963C1586.95 310.989 1586.25 309.91 1585.47 308.727C1584.77 307.475 1584.18 306.153 1583.71 304.761C1583.24 303.3 1583.01 301.734 1583.01 300.064C1583.01 296.933 1583.83 294.15 1585.47 291.715C1587.11 289.21 1589.37 287.262 1592.25 285.87C1595.22 284.409 1598.57 283.678 1602.32 283.678C1605.98 283.678 1609.34 284.304 1612.38 285.557C1615.5 286.74 1618.11 288.097 1620.22 289.627L1617.41 293.072C1615.07 291.541 1612.69 290.323 1610.27 289.419C1607.93 288.514 1605.56 288.062 1603.14 288.062C1599 288.062 1595.57 289.21 1592.84 291.506C1590.19 293.733 1588.86 296.585 1588.86 300.064C1588.86 301.665 1589.13 303.196 1589.68 304.657C1590.3 306.118 1590.89 307.301 1591.44 308.205C1592.06 309.11 1592.41 309.632 1592.49 309.771L1637.42 362.165ZM1599.04 324.487C1596.54 324.487 1594.01 324.94 1591.44 325.844C1588.94 326.679 1586.64 327.862 1584.53 329.393C1582.5 330.923 1580.86 332.767 1579.62 334.924C1578.37 337.012 1577.74 339.343 1577.74 341.917C1577.74 345.187 1578.72 348.075 1580.67 350.58C1582.62 353.015 1585.23 354.929 1588.51 356.32C1591.79 357.712 1595.37 358.408 1599.28 358.408C1602.63 358.408 1605.71 357.921 1608.52 356.947C1611.41 355.972 1613.9 354.685 1616.01 353.085C1618.11 351.485 1619.64 349.745 1620.57 347.866L1624.2 351.206C1622.17 354.546 1618.89 357.364 1614.37 359.66C1609.85 361.887 1604.62 363 1598.69 363C1593.46 363 1588.82 362.061 1584.77 360.182C1580.71 358.303 1577.51 355.798 1575.17 352.667C1572.83 349.467 1571.66 345.918 1571.66 342.022C1571.66 338.96 1572.4 336.142 1573.88 333.568C1575.44 330.923 1577.51 328.627 1580.08 326.679C1582.66 324.731 1585.55 323.2 1588.74 322.087C1591.94 320.973 1595.26 320.382 1598.69 320.312L1599.04 324.487ZM1632.16 320.312H1637.77L1624.78 350.476L1620.69 347.658L1632.16 320.312Z" fill="white"/>
<path d="M385.5 298.262C499 200.262 385.5 11.0002 239.5 88.0002C98.0004 179.5 212.5 370 354.5 317.762L341.5 292.262C239.5 334 139 187 255 110.762C343 57.7621 457 171.762 376 270.262L385.5 298.262Z" fill="white" stroke="white"/>
<path d="M1 363L207 6L253.5 86.5L230 100L207 62L33 363H1Z" fill="white"/>
<path d="M253 142L276 127L413 363H381L253 142Z" fill="white"/>
<path d="M1 363L207 6L253.5 86.5L230 100L207 62L33 363H1Z" stroke="white"/>
<path d="M253 142L276 127L413 363H381L253 142Z" stroke="white"/>
</svg>
